<?xml version="1.0" encoding="utf-8"?>
<!-- Generator: Adobe Illustrator 16.0.0, SVG Export Plug-In . SVG Version: 6.00 Build 0)  -->
<!DOCTYPE svg PUBLIC "-//W3C//DTD SVG 1.1//EN" "http://www.w3.org/Graphics/SVG/1.1/DTD/svg11.dtd">
<svg version="1.1" id="Layer_1" xmlns="http://www.w3.org/2000/svg" xmlns:xlink="http://www.w3.org/1999/xlink" x="0px" y="0px"
	 width="550px" height="160px" viewBox="0 0 550 160" enable-background="new 0 0 550 160" xml:space="preserve">
<g>
	<polygon fill="#A776A6" points="480.503,178.259 487.303,168.257 494.57,158.562 503.158,150.122 512.467,142.365 520.413,133.269 
		526.661,122.922 530.969,111.857 534.564,102.039 536.788,91.774 537.78,81.214 541.725,71.601 552.459,61.741 565.148,52.747 
		551.72,48.976 540.03,43.632 528.353,38.267 515.907,34.811 504.066,29.936 494.09,24.858 483.067,23.14 472.263,20.595 
		462.799,15.023 452.119,13.07 441.674,10.683 431.265,8.55 418.674,12.273 406.289,17.147 394.001,22.34 382.666,29.392 
		374.687,33.988 365.599,34.951 354.819,32.237 343.946,28.728 333.15,24.982 322.211,21.595 311.774,16.862 300.879,13.35 
		290.472,8.522 279.384,7.003 268.298,7.717 257.806,11.736 247.918,17.106 237.577,21.424 228.036,27.481 217.711,31.822 
		207.221,36.384 195.032,32.785 184.007,26.658 171.981,23.247 160.248,19.034 148.78,14.087 136.634,11.732 124.446,14.812 
		111.434,18.204 99.046,23.321 87.465,29.814 75.632,33.641 63.208,34.794 51.293,38.491 39.208,41.32 26.916,43.13 14.395,43.827 
		2.389,47.067 -9.495,50.956 -21.409,53.54 -13.521,59.313 -4.623,65.963 5.116,71.477 14.453,77.76 22.056,86.572 22.337,95.665 
		29.499,106.223 35.534,117.053 40.329,128.69 48.491,138.201 55.612,148.429 62.46,158.944 71.363,167.761 79.496,177.225 
		86.269,187.061 94.322,195.813 104.332,202.509 112.375,211.268 121.87,218.377 130.573,226.497 140.811,232.566 149.949,240.212 
		161.029,244.856 171.296,250.699 181.196,257.206 191.727,262.596 202.258,267.981 212.727,273.536 223.649,278.112 
		234.53,282.779 245.57,287.073 257.16,289.792 268.147,294.188 279.384,297.443 290.507,293.776 302.257,291.625 312.858,286.138 
		323.933,282.014 335.283,278.497 345.831,273.079 356.123,267.189 366.889,262.312 377.953,257.919 388.551,252.578 
		397.466,244.433 407.823,238.716 418.63,233.547 426.819,224.676 437.6,219.27 446.383,211.272 455.469,203.634 463.112,194.492 
		471.748,186.374 	"/>
</g>
<g>
	<polygon fill="#DCA8E2" points="542.014,164.979 547.828,155.521 553.002,145.819 559.398,137.605 562.059,127.371 
		568.623,119.163 571.646,109.137 576.205,99.9 581.935,91.196 585.648,81.552 588.833,71.354 577.874,70.862 567.89,66.014 
		557.146,64.93 546.744,62.121 536.011,60.657 526.047,63.324 515.662,62.746 505.646,64.65 495.781,67.619 485.727,67.539 
		475.923,63.046 465.237,60.034 455.619,54.476 444.982,51.578 434.989,54.56 424.866,57.496 415.472,62.224 406.52,65.414 
		397.714,69.178 389.865,74.603 382.1,80.771 371.387,78.25 360.823,76.263 350.477,73.319 340.216,69.961 329.639,67.208 
		319.614,69.283 309.794,71.494 299.585,70.677 289.86,73.644 279.912,74.084 270.433,71.527 260.206,72.118 250.78,68.739 
		240.89,67.667 231.155,65.795 221.778,64.294 211.434,68.033 200.39,71.021 189.546,74.529 179.572,80.422 170.828,74.605 
		161.738,70.014 152.264,66.25 142.529,63.153 132.562,61.04 122.895,57.024 113.386,59.723 104.52,63.691 95.42,67.117 
		87.443,72.799 78.7,78.258 69.473,74.011 59.979,72.32 50.118,71.879 40.467,65.942 30.21,61.552 19.734,58.56 10.327,60.232 
		0.725,62.948 -9.054,64.9 -19.273,64.895 -28.958,67.277 -38.355,70.716 -35.1,80.368 -30.551,89.683 -24.021,97.802 
		-18.182,106.314 -13.021,115.26 -8.638,124.63 -13.494,128.875 -6.197,136.306 -0.989,145.24 4.806,153.572 11.658,162.1 
		20.334,168.7 28.073,176.435 37.289,182.229 46.759,187.562 55.621,192.872 65.038,197.218 74.363,201.71 82.205,208.836 
		91.695,213.033 100.831,217.857 109.984,222.651 118.414,228.777 128.691,231.49 136.552,238.693 146.779,241.476 155.486,247.106 
		164.582,252.001 173.54,257.165 183.416,260.562 191.424,267.572 200.611,272.299 210.234,276.171 219.104,281.524 
		228.208,286.412 237.979,289.968 246.763,295.521 256.952,298.205 265.526,304.178 275.18,309.123 285.139,304.788 
		293.831,299.017 302.571,293.374 311.997,289.157 321.917,285.927 331.271,281.537 340.175,276.247 348.73,270.279 
		358.715,267.128 367.954,262.513 376.483,256.527 386.307,253.03 395.061,247.481 404.906,243.991 413.011,237.249 422.409,232.92 
		431.808,228.575 440.201,222.389 449.311,217.52 459.325,214.255 467.596,207.881 476.261,202.213 486.204,198.76 494.391,192.275 
		503.058,186.627 512.88,181.544 522.412,175.98 532.115,170.697 	"/>
</g>
<path fill-rule="evenodd" clip-rule="evenodd" fill="#F3BADF" d="M470.851,135.274c-40.167-7.987-136.33,4.808-139.718,5.134
	c-6.858,0.661-13.742,1.138-20.621,1.655c-8.912,0.671-81.895-3.497-84.594-2.435c-2.671,1.05-5.88,3.157-8.099,2.607
	c-6.237-1.544-64.237-5.746-75.463-3.277c-42.393,9.318-96.78,0.642-110.223,0c-16.425-0.784-49.244,13.766-51.008,14.322
	l28.833,42.006c57.482,68.488,248.323,133.157,265.528,135.98c73.277-12.095,286.288-173.027,290.152-183.456
	C535.143,143.116,541.379,149.297,470.851,135.274z"/>
</svg>
